<svg width="13" height="17" viewBox="0 0 13 17" fill="none" xmlns="http://www.w3.org/2000/svg">
<path d="M9.33331 2.83334H10.75C11.1257 2.83334 11.486 2.98259 11.7517 3.24827C12.0174 3.51395 12.1666 3.87428 12.1666 4.25001V14.1667C12.1666 14.5424 12.0174 14.9027 11.7517 15.1684C11.486 15.4341 11.1257 15.5833 10.75 15.5833H2.24998C1.87426 15.5833 1.51392 15.4341 1.24825 15.1684C0.982568 14.9027 0.833313 14.5424 0.833313 14.1667V4.25001C0.833313 3.87428 0.982568 3.51395 1.24825 3.24827C1.51392 2.98259 1.87426 2.83334 2.24998 2.83334H3.66665M4.37498 1.41667H8.62498C9.01618 1.41667 9.33331 1.7338 9.33331 2.12501V3.54167C9.33331 3.93287 9.01618 4.25001 8.62498 4.25001H4.37498C3.98378 4.25001 3.66665 3.93287 3.66665 3.54167V2.12501C3.66665 1.7338 3.98378 1.41667 4.37498 1.41667Z" stroke="white" stroke-width="1.25" stroke-linecap="round" stroke-linejoin="round"/>
</svg>
